<svg version="1.1" id="Layer_1" xmlns="http://www.w3.org/2000/svg" x="0" y="0" viewBox="0 0 256 256" style="enable-background:new 0 0 256 256" xml:space="preserve"><style>.st1{fill:#f85252}.st5{fill:#fff}.st8{fill:#491352}</style><path class="st1" d="M240.402 195.003H34.487a5 5 0 0 1-5-5V12.166a5 5 0 0 1 5-5h205.916a5 5 0 0 1 5 5v177.837a5 5 0 0 1-5.001 5z"/><path d="M245.4 37.92v152.27c0 2.66-2.15 4.81-4.82 4.81H34.3c-2.66 0-4.81-2.15-4.81-4.81V11.98c0-2.66 2.15-4.81 4.81-4.81h51.96l21.86 27.15a9.622 9.622 0 0 0 7.51 3.6H245.4z" style="fill:#d8d6d7"/><path class="st5" d="M245.4 37.92v152.27c0 2.66-2.15 4.81-4.82 4.81H44.47V7.17h41.79l21.86 27.15a9.622 9.622 0 0 0 7.51 3.6H245.4z"/><circle class="st5" cx="205.054" cy="22.811" r="6.029"/><circle class="st5" cx="227.119" cy="22.811" r="6.029"/><path d="m106.69 170.45-74.71 74.72c-3.28 3.28-7.92 4.35-12.1 3.24-2.05-.55-4-1.64-5.62-3.25-4.88-4.88-4.89-12.81 0-17.7l74.71-74.71c2.33 3.41 5 6.65 8.03 9.68s6.28 5.71 9.69 8.02z" style="fill:#d73735"/><path class="st1" d="m106.69 170.45-74.71 74.72c-3.28 3.28-7.92 4.35-12.1 3.24-1.13-4.17-.04-8.82 3.24-12.1L97 162.43c3.03 3.03 6.28 5.71 9.69 8.02z"/><path d="M192.16 67.27c-26.28-26.28-68.88-26.28-95.16 0-26.27 26.28-26.27 68.88 0 95.16 26.28 26.27 68.88 26.27 95.16 0 26.28-26.281 26.28-68.88 0-95.16zm-11.72 83.429c-19.81 19.81-51.91 19.81-71.71 0-19.8-19.8-19.8-51.9 0-71.7 19.8-19.81 51.9-19.81 71.71 0 19.8 19.801 19.8 51.9 0 71.7z" style="fill:#40c4df"/><path d="M101.641 166.651a64.812 64.812 0 0 1-4.646-4.221c-26.276-26.276-26.276-68.886 0-95.162 26.276-26.276 68.886-26.276 95.162 0a64.812 64.812 0 0 1 4.221 4.646c-26.432-21.977-65.74-20.57-90.524 4.214-24.783 24.784-26.19 64.092-4.213 90.523z" style="fill:#1c868e"/><path class="st8" d="M144.6 147.93c8.08 0 10.19-6.45 10.19-14.98 0-8.41-2.11-14.82-10.19-14.82-8.12 0-10.23 6.41-10.23 14.82 0 8.53 2.11 14.98 10.23 14.98zm0-26.43c5.77 0 6.54 5.36 6.54 11.45 0 6.33-.77 11.61-6.54 11.61-5.8 0-6.58-5.28-6.58-11.61 0-6.09.78-11.45 6.58-11.45zM162.84 113.3c8.08 0 10.19-6.45 10.19-14.98 0-8.41-2.11-14.82-10.19-14.82-8.12 0-10.23 6.41-10.23 14.82 0 8.53 2.11 14.98 10.23 14.98zm0-26.43c5.77 0 6.54 5.36 6.54 11.45 0 6.33-.77 11.61-6.54 11.61-5.8 0-6.58-5.28-6.58-11.61 0-6.09.78-11.45 6.58-11.45zM117.23 121.72h3.9v25.99h3.74v-29.36h-7.64zM160.44 121.72h3.89v25.99h3.74v-29.36h-7.63z"/><path class="st8" d="M240.4 5.17H34.3a6.818 6.818 0 0 0-6.81 6.81v178.21A6.818 6.818 0 0 0 34.3 197H41.895l-29.051 29.047c-5.65 5.662-5.65 14.874.001 20.537 5.674 5.675 14.863 5.677 20.538 0L82.968 197H240.58c3.76 0 6.82-3.055 6.82-6.81V12.17c0-3.86-3.14-7-7-7zM30.556 243.756c-4.111 4.111-10.769 4.113-14.88.001-4.095-4.104-4.095-10.781-.001-14.883l73.042-73.032a69.214 69.214 0 0 0 6.87 8.002 68.935 68.935 0 0 0 8.009 6.873l-73.04 73.039zM98.414 68.684c25.456-25.455 66.876-25.455 92.332 0 25.456 25.456 25.456 66.875 0 92.332-22.189 22.18-57.066 25.453-82.928 7.783l-.005-.002-.002-.002a64.487 64.487 0 0 1-9.397-7.779 65.021 65.021 0 0 1-7.78-9.39l-.002-.002-.001-.001c-17.672-25.868-14.398-60.748 7.783-82.939zM243.4 190c0 1.654-1.346 3-3 3H86.968l19.986-19.986c27.452 17.806 63.578 13.862 86.62-9.17 27.016-27.016 27.016-70.973 0-97.988-27.016-27.016-70.973-27.016-97.989 0-23.146 23.155-26.874 59.324-9.166 86.626L45.896 193H34.49c-1.654 0-3-1.346-3-3V12.17c0-1.654 1.346-3 3-3h50.812l21.258 26.402a11.573 11.573 0 0 0 9.069 4.348H243.4V190zm0-154.08H115.63a7.595 7.595 0 0 1-5.952-2.854L90.438 9.17H240.4c1.654 0 3 1.346 3 3v23.75z"/><path class="st8" d="M205.054 14.782c-4.427 0-8.028 3.602-8.028 8.028 0 4.427 3.602 8.029 8.028 8.029s8.028-3.602 8.028-8.029c0-4.426-3.602-8.028-8.028-8.028zm0 12.057a4.033 4.033 0 0 1-4.028-4.029c0-2.221 1.807-4.028 4.028-4.028s4.028 1.807 4.028 4.028a4.033 4.033 0 0 1-4.028 4.029zM227.119 14.782c-4.427 0-8.029 3.602-8.029 8.028 0 4.427 3.602 8.029 8.029 8.029s8.028-3.602 8.028-8.029c0-4.426-3.601-8.028-8.028-8.028zm0 12.057a4.033 4.033 0 0 1-4.029-4.029 4.033 4.033 0 0 1 4.029-4.028 4.033 4.033 0 0 1 4.028 4.028 4.033 4.033 0 0 1-4.028 4.029zM181.851 152.118c20.55-20.55 20.55-53.987 0-74.537-20.549-20.549-53.986-20.55-74.537 0-20.55 20.55-20.55 53.987 0 74.537 20.55 20.549 53.986 20.55 74.537 0zm-71.709-71.709c18.99-18.99 49.89-18.991 68.88 0 18.99 18.99 18.99 49.89 0 68.88-18.99 18.99-49.89 18.991-68.88 0-18.99-18.99-18.99-49.89 0-68.88z"/><path class="st8" d="M123.81 113.3c8.08 0 10.19-6.45 10.19-14.98 0-8.41-2.11-14.82-10.19-14.82-8.12 0-10.23 6.41-10.23 14.82 0 8.53 2.11 14.98 10.23 14.98zm0-26.43c5.77 0 6.54 5.36 6.54 11.45 0 6.33-.77 11.61-6.54 11.61-5.8 0-6.58-5.28-6.58-11.61 0-6.09.78-11.45 6.58-11.45zM142 113.3h3.74V83.95h-7.63v3.37H142zM76.918 21.825H50.722a2 2 0 0 0 0 4h26.196a2 2 0 0 0 0-4z"/></svg>